<?xml version="1.0" encoding="UTF-8"?>
<svg id="Calque_1" xmlns="http://www.w3.org/2000/svg" version="1.1" viewBox="0 0 340.3 39.4">
  <!-- Generator: Adobe Illustrator 29.1.0, SVG Export Plug-In . SVG Version: 2.1.0 Build 142)  -->
  <defs>
    <style>
      .st0 {
        fill: #1d1d1b;
      }

      .st1 {
        fill: none;
        stroke: #010101;
        stroke-miterlimit: 10;
        stroke-width: .1px;
      }
    </style>
  </defs>
  <path class="st0" d="M228,11.9c-5.9,0-7.9-2.6-7.9-9.7V.1h18.7c-.6,9.2-4.7,11.8-10.8,11.8M187.2,3.3c0,6-3.3,8.7-9.8,8.7s-10-2.6-10-8.7.2-2.2.4-3.2h18.9c.2.9.4,2,.4,3.2M33.3,3.1c0,6.1-3.4,8.8-10,8.8s-9.8-2.7-9.8-8.8.2-2.1.4-3h19c.2.9.4,1.9.4,3M69.3,13.1c-2.6,0-4.9-.6-4.9-3.2s1.9-2.6,5.5-3.1l9.5-1.4c0,4.8-4.5,7.7-10.1,7.7M0,.1H0v22.8h13.4v-7.6c2.4,4.5,6.8,8.4,15,8.4,12.8,0,18.2-9.5,18.2-20.6s0-2-.2-3h20c-11.4,1.4-15.2,5.4-15.2,12.1s2.1,11.6,14.6,11.6,15.7-4.9,17.5-10.8v4c0,3.8,2.3,6,6.1,6h9.1v-11.8h-5.7V0h10.6v22.8h13.4v-14.2c0-3.7.5-6.5,1.4-8.6h17c.2,1.1.3,2.5.3,4v18.8h13.5V2c0-.7,0-1.3,0-1.9h5.3c-.1,1-.2,2.1-.2,3.2,0,11.1,5.4,20.5,18.2,20.5s12.8-4.2,15-8.4v24h13.4V0h6v4.3c0,12.4,6.2,19.4,16.4,19.4s13.8-4.3,15.8-10.1v9.3h13.4V0h6.1c-.1,1-.2,1.9-.2,2.9,0,12.3,8.3,20.7,21.6,20.7s19.9-6,21-14.8h-13.3c-.8,3-3.6,4.7-7.7,4.7s-7.7-2.7-8.2-7.7h29.1v-3.5c0-.8,0-1.6-.1-2.4h11.6v16c0,4.5,2.4,6.9,6.8,6.9h21.2v-11.8h-14.7c0,0,0-11.1,0-11.1h14.7H0Z"/>
  <path class="st1" d="M228,11.9c-5.9,0-7.9-2.6-7.9-9.7V.1h18.7c-.6,9.2-4.7,11.8-10.8,11.8ZM187.2,3.3c0,6-3.3,8.7-9.8,8.7s-10-2.6-10-8.7.2-2.2.4-3.2h18.9c.2.9.4,2,.4,3.2ZM33.3,3.1c0,6.1-3.4,8.8-10,8.8s-9.8-2.7-9.8-8.8.2-2.1.4-3h19c.2.9.4,1.9.4,3ZM69.3,13.1c-2.6,0-4.9-.6-4.9-3.2s1.9-2.6,5.5-3.1l9.5-1.4c0,4.8-4.5,7.7-10.1,7.7ZM0,.1H0v22.8h13.4v-7.6c2.4,4.5,6.8,8.4,15,8.4,12.8,0,18.2-9.5,18.2-20.6s0-2-.2-3h20c-11.4,1.4-15.2,5.4-15.2,12.1s2.1,11.6,14.6,11.6,15.7-4.9,17.5-10.8v4c0,3.8,2.3,6,6.1,6h9.1v-11.8h-5.7V0h10.6v22.8h13.4v-14.2c0-3.7.5-6.5,1.4-8.6h17c.2,1.1.3,2.5.3,4v18.8h13.5V2c0-.7,0-1.3,0-1.9h5.3c-.1,1-.2,2.1-.2,3.2,0,11.1,5.4,20.5,18.2,20.5s12.8-4.2,15-8.4v24h13.4V0h6v4.3c0,12.4,6.2,19.4,16.4,19.4s13.8-4.3,15.8-10.1v9.3h13.4V0h6.1c-.1,1-.2,1.9-.2,2.9,0,12.3,8.3,20.7,21.6,20.7s19.9-6,21-14.8h-13.3c-.8,3-3.6,4.7-7.7,4.7s-7.7-2.7-8.2-7.7h29.1v-3.5c0-.8,0-1.6-.1-2.4h11.6v16c0,4.5,2.4,6.9,6.8,6.9h21.2v-11.8h-14.7c0,0,0-11.1,0-11.1h14.7H0Z"/>
</svg>