<?xml version="1.0" encoding="UTF-8"?>
<svg id="Calque_1" xmlns="http://www.w3.org/2000/svg" version="1.1" viewBox="0 0 340.3 39.4">
  <!-- Generator: Adobe Illustrator 29.1.0, SVG Export Plug-In . SVG Version: 2.1.0 Build 142)  -->
  <defs>
    <style>
      .st0 {
        fill: none;
        stroke: #000;
        stroke-miterlimit: 10;
        stroke-width: .1px;
      }
    </style>
  </defs>
  <path class="st0" d="M13.5,37.7c0-6,3.3-8.7,9.8-8.7s10,2.6,10,8.7,0,1.1-.1,1.7H13.6c0-.5-.1-1.1-.1-1.7ZM127.7,29c5.9,0,7.8,2.6,7.8,9.7v.7h-18.4c.9-8,4.9-10.4,10.6-10.4h0ZM167.4,37.8c0-6.1,3.4-8.8,10-8.8s9.8,2.7,9.8,8.8,0,1-.1,1.5h-19.6c0-.5-.1-1-.1-1.5h0ZM279.5,26.9c4.7,0,7.7,2.4,8.1,6.8h-16.1c.3-4.4,3.4-6.8,8-6.8ZM340.2,39.3h-14.7v-9.6h14.7v-11.8h-14.7V6.7l-13.4,4.2v7h-9.5v11.8h9.5v9.6h-11.5v-2.3c0-12.4-7.9-19.8-21.6-19.8s-21,7.7-21,20.4,0,1.2,0,1.8h-6v-21.4h-13.4v14.2c0,2.9-.3,5.2-.9,7.1h-17.8c0-.8-.1-1.6-.1-2.5v-18.8h-13.4v20.9c0,.1,0,.3,0,.4h-6v-21.4h-13.4v7.6c-2.4-4.5-6.8-8.4-15-8.4-12.8,0-18.2,9.4-18.2,20.6s0,1,0,1.5h-5.1v-2.8c0-12.4-6.2-19.4-16.5-19.4s-13.7,4.3-15.7,10.1v-9.3h-13.4v21.4h-10.6v-4.5c0-12.7-9.3-17.6-20.2-17.6s-20.1,5.4-20.4,15.8h12.6c.2-3.5,2.4-5.6,7.3-5.6s7.3,1.6,7.3,5.8l-12,1.3c-6.8.7-11,2.3-13.4,4.8h-7.4c0-.6,0-1.1,0-1.7,0-11.1-5.4-20.5-18.2-20.5s-12.8,4.2-15,8.4V0H0v39.3h340.2,0Z"/>
</svg>