<?xml version="1.0" encoding="UTF-8"?>
<svg id="Calque_1" xmlns="http://www.w3.org/2000/svg" version="1.1" viewBox="0 0 595.28 841.89">
  <!-- Generator: Adobe Illustrator 29.7.1, SVG Export Plug-In . SVG Version: 2.1.1 Build 8)  -->
  <defs>
    <style>
      .st0 {
        fill: #1d1d1b;
      }

      .st1 {
        fill: none;
        stroke: #010101;
        stroke-miterlimit: 10;
        stroke-width: .14px;
      }
    </style>
  </defs>
  <path class="st0" d="M140.99,152.45c0-6.01,3.28-8.67,9.76-8.67s10,2.58,10,8.67c0,.6-.06,1.15-.12,1.68h-19.52c-.06-.53-.12-1.08-.12-1.68M255.19,143.78c5.94,0,7.81,2.58,7.81,9.69v.67h-18.44c.94-7.97,4.92-10.35,10.63-10.35M294.94,152.6c0-6.09,3.44-8.83,10-8.83s9.76,2.66,9.76,8.83c0,.54-.04,1.04-.1,1.53h-19.56c-.06-.49-.11-.98-.11-1.53M407.03,141.67c4.69,0,7.73,2.42,8.12,6.8h-16.09c.31-4.37,3.36-6.8,7.97-6.8M467.72,154.13h-14.68v-9.57h14.68v-11.8h-14.68v-11.25l-13.36,4.22v7.03h-9.53v11.8h9.53v9.57h-11.48v-2.31c0-12.42-7.89-19.84-21.56-19.84-12.26,0-21.01,7.66-21.01,20.39,0,.6.04,1.18.08,1.76h-6.01v-21.37h-13.36v14.22c0,2.91-.31,5.25-.86,7.15h-17.77c-.07-.78-.12-1.61-.12-2.54v-18.83h-13.43v20.93c0,.15,0,.29.01.43h-6.02v-21.37h-13.36v7.58c-2.42-4.53-6.8-8.36-15-8.36-12.81,0-18.2,9.45-18.2,20.62,0,.52.02,1.02.05,1.53h-5.12v-2.78c0-12.42-6.17-19.37-16.48-19.37-8.51,0-13.67,4.3-15.7,10.08v-9.3h-13.36v21.37h-10.62v-4.5c0-12.73-9.29-17.65-20.23-17.65s-20.15,5.39-20.39,15.78h12.58c.16-3.52,2.42-5.55,7.27-5.55,5.31,0,7.34,1.64,7.34,5.78l-12.03,1.33c-6.82.71-11.03,2.32-13.43,4.81h-7.4c.03-.56.05-1.12.05-1.68,0-11.09-5.39-20.47-18.2-20.47-8.67,0-12.81,4.22-15,8.36v-25.47h-13.36v39.26h340.16Z"/>
  <path class="st1" d="M140.99,152.45c0-6.01,3.28-8.67,9.76-8.67s10,2.58,10,8.67c0,.6-.06,1.15-.12,1.68h-19.52c-.06-.53-.12-1.08-.12-1.68ZM255.19,143.78c5.94,0,7.81,2.58,7.81,9.69v.67h-18.44c.94-7.97,4.92-10.35,10.63-10.35ZM294.94,152.6c0-6.09,3.44-8.83,10-8.83s9.76,2.66,9.76,8.83c0,.54-.04,1.04-.1,1.53h-19.56c-.06-.49-.11-.98-.11-1.53ZM407.03,141.67c4.69,0,7.73,2.42,8.12,6.8h-16.09c.31-4.37,3.36-6.8,7.97-6.8ZM467.72,154.13h-14.68v-9.57h14.68v-11.8h-14.68v-11.25l-13.36,4.22v7.03h-9.53v11.8h9.53v9.57h-11.48v-2.31c0-12.42-7.89-19.84-21.56-19.84-12.26,0-21.01,7.66-21.01,20.39,0,.6.04,1.18.08,1.76h-6.01v-21.37h-13.36v14.22c0,2.91-.31,5.25-.86,7.15h-17.77c-.07-.78-.12-1.61-.12-2.54v-18.83h-13.43v20.93c0,.15,0,.29.01.43h-6.02v-21.37h-13.36v7.58c-2.42-4.53-6.8-8.36-15-8.36-12.81,0-18.2,9.45-18.2,20.62,0,.52.02,1.02.05,1.53h-5.12v-2.78c0-12.42-6.17-19.37-16.48-19.37-8.51,0-13.67,4.3-15.7,10.08v-9.3h-13.36v21.37h-10.62v-4.5c0-12.73-9.29-17.65-20.23-17.65s-20.15,5.39-20.39,15.78h12.58c.16-3.52,2.42-5.55,7.27-5.55,5.31,0,7.34,1.64,7.34,5.78l-12.03,1.33c-6.82.71-11.03,2.32-13.43,4.81h-7.4c.03-.56.05-1.12.05-1.68,0-11.09-5.39-20.47-18.2-20.47-8.67,0-12.81,4.22-15,8.36v-25.47h-13.36v39.26h340.16Z"/>
  <path class="st0" d="M355.48,699.6c-5.94,0-7.89-2.58-7.89-9.69v-2.15h18.66c-.61,9.17-4.72,11.84-10.77,11.84M314.71,690.93c0,6.02-3.28,8.67-9.76,8.67s-10-2.58-10-8.67c0-1.19.16-2.23.42-3.17h18.94c.25.94.4,1.97.4,3.17M160.76,690.77c0,6.09-3.44,8.83-10,8.83s-9.76-2.66-9.76-8.83c0-1.14.16-2.12.4-3.01h18.98c.24.89.38,1.88.38,3.01M196.84,700.77c-2.58,0-4.92-.62-4.92-3.2,0-2.19,1.95-2.58,5.47-3.12l9.53-1.41c0,4.76-4.53,7.73-10.08,7.73M127.56,687.76h0v22.85h13.36v-7.58c2.42,4.53,6.8,8.36,15,8.36,12.81,0,18.2-9.45,18.2-20.62,0-1.02-.06-2.03-.16-3.01h20.03c-11.38,1.36-15.18,5.38-15.18,12.07,0,4.06,2.11,11.56,14.61,11.56,11.48,0,15.7-4.92,17.5-10.78v3.98c0,3.83,2.26,6.01,6.09,6.01h9.06v-11.8h-5.7v-10.86c0-.07,0-.13,0-.2h10.63v22.85h13.36v-14.22c0-3.72.49-6.52,1.37-8.64h17c.2,1.14.3,2.47.3,4.03v18.83h13.51v-20.94c0-.66-.03-1.29-.06-1.92h5.31c-.1,1.04-.17,2.09-.17,3.17,0,11.09,5.39,20.47,18.2,20.47,8.67,0,12.81-4.22,15-8.36v23.98h13.36v-39.26h6.01v4.26c0,12.42,6.17,19.37,16.4,19.37,8.59,0,13.75-4.3,15.78-10.08v9.3h13.36v-22.85h6.13c-.11.95-.2,1.92-.2,2.94,0,12.34,8.28,20.7,21.64,20.7,12.18,0,19.92-6.01,21.01-14.76h-13.28c-.78,3.05-3.59,4.69-7.73,4.69-4.84,0-7.73-2.73-8.2-7.65h29.14v-3.51c0-.82-.05-1.61-.12-2.39h11.6v15.98c0,4.45,2.42,6.87,6.8,6.87h21.25v-11.8l-14.69.08v-11.14h14.69H127.56Z"/>
  <path class="st1" d="M355.48,699.6c-5.94,0-7.89-2.58-7.89-9.69v-2.15h18.66c-.61,9.17-4.72,11.84-10.77,11.84ZM314.71,690.93c0,6.02-3.28,8.67-9.76,8.67s-10-2.58-10-8.67c0-1.19.16-2.23.42-3.17h18.94c.25.94.4,1.97.4,3.17ZM160.76,690.77c0,6.09-3.44,8.83-10,8.83s-9.76-2.66-9.76-8.83c0-1.14.16-2.12.4-3.01h18.98c.24.89.38,1.88.38,3.01ZM196.84,700.77c-2.58,0-4.92-.62-4.92-3.2,0-2.19,1.95-2.58,5.47-3.12l9.53-1.41c0,4.76-4.53,7.73-10.08,7.73ZM127.56,687.76h0v22.85h13.36v-7.58c2.42,4.53,6.8,8.36,15,8.36,12.81,0,18.2-9.45,18.2-20.62,0-1.02-.06-2.03-.16-3.01h20.03c-11.38,1.36-15.18,5.38-15.18,12.07,0,4.06,2.11,11.56,14.61,11.56,11.48,0,15.7-4.92,17.5-10.78v3.98c0,3.83,2.26,6.01,6.09,6.01h9.06v-11.8h-5.7v-10.86c0-.07,0-.13,0-.2h10.63v22.85h13.36v-14.22c0-3.72.49-6.52,1.37-8.64h17c.2,1.14.3,2.47.3,4.03v18.83h13.51v-20.94c0-.66-.03-1.29-.06-1.92h5.31c-.1,1.04-.17,2.09-.17,3.17,0,11.09,5.39,20.47,18.2,20.47,8.67,0,12.81-4.22,15-8.36v23.98h13.36v-39.26h6.01v4.26c0,12.42,6.17,19.37,16.4,19.37,8.59,0,13.75-4.3,15.78-10.08v9.3h13.36v-22.85h6.13c-.11.95-.2,1.92-.2,2.94,0,12.34,8.28,20.7,21.64,20.7,12.18,0,19.92-6.01,21.01-14.76h-13.28c-.78,3.05-3.59,4.69-7.73,4.69-4.84,0-7.73-2.73-8.2-7.65h29.14v-3.51c0-.82-.05-1.61-.12-2.39h11.6v15.98c0,4.45,2.42,6.87,6.8,6.87h21.25v-11.8l-14.69.08v-11.14h14.69H127.56Z"/>
</svg>